<mxfile host="app.diagrams.net" modified="2024-04-28T09:52:05.237Z" agent="Mozilla/5.0 (Windows NT 10.0; Win64; x64) AppleWebKit/537.36 (KHTML, like Gecko) Chrome/124.0.0.0 Safari/537.36" version="24.2.8" etag="F37GFWY2yoUHmMJn9rBJ" type="github">
  <diagram name="第 1 页" id="HkI0_IlVKGS96W8RkAuW">
    <mxGraphModel>
      <root>
        <mxCell id="0" />
        <mxCell id="1" parent="0" />
      </root>
    </mxGraphModel>
  </diagram>
</mxfile>
